<svg xmlns="http://www.w3.org/2000/svg" xmlns:xlink="http://www.w3.org/1999/xlink"><defs><path id="a" d="M0 0h35.83v27H0z"/><path id="a" d="M0 0h33.13v37.79H0z"/><path id="a" d="M0 0h36v35.76H0z"/><path id="c" d="M0 0h36v35.76H0z"/><path id="a" d="M0 0h35.94v27.28H0z"/></defs><symbol id="arrow-down" viewBox="0 0 26 28"><path d="M25.172 13c0 .531-.219 1.047-.578 1.406L14.422 24.593c-.375.359-.891.578-1.422.578s-1.047-.219-1.406-.578L1.422 14.406C1.047 14.047.828 13.531.828 13s.219-1.047.594-1.422l1.156-1.172c.375-.359.891-.578 1.422-.578s1.047.219 1.406.578L10 15V4c0-1.094.906-2 2-2h2c1.094 0 2 .906 2 2v11l4.594-4.594c.359-.359.875-.578 1.406-.578s1.047.219 1.422.578l1.172 1.172c.359.375.578.891.578 1.422z"/></symbol><symbol id="arrow-up" viewBox="0 0 26 28"><path d="M25.172 15.172c0 .531-.219 1.031-.578 1.406l-1.172 1.172c-.375.375-.891.594-1.422.594s-1.047-.219-1.406-.594L16 13.172v11C16 25.297 15.062 26 14 26h-2c-1.062 0-2-.703-2-1.828v-11L5.406 17.75a1.96 1.96 0 0 1-2.812 0l-1.172-1.172c-.375-.375-.594-.875-.594-1.406s.219-1.047.594-1.422L11.594 3.578C11.953 3.203 12.469 3 13 3s1.047.203 1.422.578L24.594 13.75c.359.375.578.891.578 1.422z"/></symbol><symbol id="book" viewBox="0 0 35.83 27"><clipPath id="b"><use xlink:href="#a" overflow="visible"/></clipPath><path clip-path="url(#b)" d="M23.08 22.25v1h10.75c1.11 0 2-.89 2-2V2c0-1.11-.89-2-2-2H23.08c-.15 0-.57 0-1.08.11-.77.17-1.82.6-2.78 1.6-.96 1-1.8 2.53-2.29 4.82l-.02.21V26c0 .45.31.85.74.97.44.12.9-.08 1.12-.47.96-1.68 1.96-2.46 2.74-2.85.79-.39 1.36-.39 1.56-.4v-2c-.35 0-1.31.03-2.45.6-1.15.57-2.46 1.67-3.58 3.65l.88.5h1V6.75h-1l.98.21c.59-2.7 1.61-3.86 2.43-4.41.42-.28.8-.41 1.11-.48.31-.07.52-.07.64-.07h10.75v19.25H23.08v1z"/><path clip-path="url(#b)" d="M12.75 22.25v-1H2V2h10.75c.12 0 .34 0 .65.07.47.1 1.1.35 1.75 1.03.65.68 1.34 1.85 1.79 3.87l.98-.21h-1V26h1l.87-.49c-1.12-1.98-2.44-3.08-3.58-3.65-1.14-.57-2.11-.61-2.45-.6v1.99c.2 0 .78.01 1.56.4s1.77 1.16 2.74 2.85a.995.995 0 0 0 1.86-.5V6.75l-.02-.21c-.66-3.05-1.95-4.77-3.26-5.65-.65-.44-1.29-.67-1.8-.78C13.32 0 12.9 0 12.75 0H2C.89 0 0 .89 0 2v19.25c0 1.11.89 2 2 2h10.75v-1z"/><path clip-path="url(#b)" fill="#FFF" d="M4.5 5.67H10"/><path clip-path="url(#b)" d="M4.5 6.67H10c.55 0 1-.45 1-1s-.45-1-1-1H4.5c-.55 0-1 .45-1 1s.45 1 1 1"/><path clip-path="url(#b)" fill="#FFF" d="M4.5 9.67h9.58"/><path clip-path="url(#b)" d="M4.5 10.67h9.58c.55 0 1-.45 1-1s-.45-1-1-1H4.5c-.55 0-1 .45-1 1s.45 1 1 1"/><path clip-path="url(#b)" fill="#FFF" d="M4.5 13.67h9.58"/><path clip-path="url(#b)" d="M4.5 14.67h9.58c.55 0 1-.45 1-1s-.45-1-1-1H4.5c-.55 0-1 .45-1 1s.45 1 1 1"/><path clip-path="url(#b)" fill="#FFF" d="M4.5 17.67h9.58"/><path clip-path="url(#b)" d="M4.5 18.67h9.58c.55 0 1-.45 1-1s-.45-1-1-1H4.5c-.55 0-1 .45-1 1s.45 1 1 1"/><path clip-path="url(#b)" fill="#FFF" d="M21.58 5.67h9.59"/><path clip-path="url(#b)" d="M21.58 6.67h9.58c.55 0 1-.45 1-1s-.45-1-1-1h-9.58c-.55 0-1 .45-1 1s.45 1 1 1"/><path clip-path="url(#b)" fill="#FFF" d="M21.58 9.67h9.59"/><path clip-path="url(#b)" d="M21.58 10.67h9.58c.55 0 1-.45 1-1s-.45-1-1-1h-9.58c-.55 0-1 .45-1 1s.45 1 1 1"/><path clip-path="url(#b)" fill="#FFF" d="M21.58 13.67h9.59"/><path clip-path="url(#b)" d="M21.58 14.67h9.58c.55 0 1-.45 1-1s-.45-1-1-1h-9.58c-.55 0-1 .45-1 1s.45 1 1 1"/><path clip-path="url(#b)" fill="#FFF" d="M21.58 17.67h9.59"/><path clip-path="url(#b)" d="M21.58 18.67h9.58c.55 0 1-.45 1-1s-.45-1-1-1h-9.58c-.55 0-1 .45-1 1s.45 1 1 1"/></symbol><symbol id="bookmark" viewBox="0 0 40 48"><path fill="#05817A" d="M7 39h29c2.21 0 4-1.79 4-4V4c0-2.21-1.79-4-4-4H22v17.99c0 .26-.1.52-.29.72-.39.39-1.03.39-1.42 0-.26-.27-4.29-3.62-4.29-3.62s-4.03 3.35-4.29 3.62c-.39.39-1.03.39-1.42 0-.19-.2-.29-.46-.29-.72V0H4C1.79 0 0 1.79 0 4v40c0 2.21 1.79 4 4 4h33.5a2.5 2.5 0 0 0 0-5H7c-1.1 0-2-.9-2-2s.9-2 2-2z"/></symbol><symbol id="chevron-circle-down" viewBox="0 0 24 28"><path d="M12.703 20.297l7.094-7.094a.99.99 0 0 0 0-1.406l-1.594-1.594a.99.99 0 0 0-1.406 0L12 15l-4.797-4.797a.99.99 0 0 0-1.406 0l-1.594 1.594a.99.99 0 0 0 0 1.406l7.094 7.094a.99.99 0 0 0 1.406 0zM24 14c0 6.625-5.375 12-12 12S0 20.625 0 14 5.375 2 12 2s12 5.375 12 12z"/></symbol><symbol id="chevron-circle-right" viewBox="0 0 24 28"><path d="M11.203 21.797l7.094-7.094a.99.99 0 0 0 0-1.406l-7.094-7.094a.99.99 0 0 0-1.406 0L8.203 7.797a.99.99 0 0 0 0 1.406L13 14l-4.797 4.797a.99.99 0 0 0 0 1.406l1.594 1.594a.99.99 0 0 0 1.406 0zM24 14c0 6.625-5.375 12-12 12S0 20.625 0 14 5.375 2 12 2s12 5.375 12 12z"/></symbol><symbol id="court" viewBox="0 0 33.13 37.79"><clipPath id="b"><use xlink:href="#a" overflow="visible"/></clipPath><path clip-path="url(#b)" d="M1.77 10.44l.54.84 14.23-9.09 11.34 7.25H1.77v1l.54.84-.54-.84v1H31.3c.44 0 .83-.29.96-.72.12-.43-.05-.88-.42-1.12L17.08.16c-.33-.21-.75-.21-1.08 0L1.24 9.59c-.37.24-.55.7-.42 1.12.12.43.52.72.96.72v-.99zM30.87 33.1v-1h-.95v1h1v-.99c0-1.25-1.01-2.26-2.27-2.27H4.17c-1.25 0-2.26 1.01-2.27 2.27v.99h1v-1h-.63A2.275 2.275 0 0 0 0 34.37v1.15c0 1.25 1.01 2.26 2.27 2.27h28.6c1.25 0 2.26-1.01 2.27-2.27v-1.15c0-1.25-1.01-2.26-2.27-2.27v2l.19.08.08.19v1.15l-.08.19-.19.08H2.27l-.19-.08-.08-.19v-1.15l.08-.19.19-.08h.63c.26 0 .52-.11.71-.29a.99.99 0 0 0 .29-.71v-.99l.08-.19.19-.08h24.48l.19.08.08.19v.99c0 .26.11.52.29.71s.44.29.71.29h.95v-1zM7.58 13.22v-1h-5c-1 0-1.8.81-1.81 1.81v1.82c0 1 .81 1.8 1.81 1.81h.55v9.74c0 1 .81 1.8 1.81 1.81h2.64c1 0 1.81-.81 1.81-1.81V14.02c0-1-.81-1.8-1.81-1.81v2.01-.19h-.19c0 .11.08.19.19.19v-.19h-.19v13.36h.19v-.19c-.11 0-.19.08-.19.19h.19v-.19H4.94v.19h.19c0-.11-.08-.19-.19-.19v.19h.19V16.65c0-.26-.11-.52-.29-.71a.99.99 0 0 0-.71-.29H2.58v.19h.19c0-.11-.08-.19-.19-.19v.19h.19v-1.82h-.19v.19c.11 0 .19-.08.19-.19h-.19v.19h5v-.99zM11.88 13.22v1h2.26V27.2h-2.26V12.22c-1.11 0-2 .89-2 2V27.2c0 1.11.89 2 2 2h2.26c1.11 0 2-.89 2-2V14.22c0-1.11-.89-2-2-2h-2.26v1zM18.64 13.22v1h2.26V27.2h-2.26V12.22c-1.11 0-2 .89-2 2V27.2c0 1.11.89 2 2 2h2.26c1.11 0 2-.89 2-2V14.22c0-1.11-.89-2-2-2h-2.26v1zM30.2 13.22v-1h-5c-1 0-1.8.8-1.81 1.81v13.36c0 1 .81 1.8 1.81 1.81h2.64c1 0 1.8-.81 1.81-1.81v-9.74h.55c1 0 1.8-.81 1.81-1.81v-1.82c0-1-.81-1.8-1.81-1.81v2.01-.19h-.19c0 .11.08.19.19.19v-.19h-.19v1.82h.19v-.19c-.11 0-.19.08-.19.19h.19v-.19h-1.55c-.26 0-.52.11-.71.29a.99.99 0 0 0-.29.71V27.4h.19v-.19c-.11 0-.19.08-.19.19h.19v-.19H25.2v.19h.19c0-.11-.08-.19-.19-.19v.19h.19V14.02h-.19v.19c.11 0 .19-.08.19-.19h-.19v.19h5v-.99z"/></symbol><symbol id="document" viewBox="0 0 38 48"><path fill="#05817A" d="M36.62 10.53l-9.08-9.06C26.64.56 25.38 0 24 0H4C1.79 0 0 1.79 0 4v40c0 2.21 1.79 4 4 4h30c2.21 0 4-1.79 4-4V13.92c0-1.34-.53-2.53-1.38-3.39zM31 20h-9c-2.21 0-4-1.79-4-4V7c0-1.1.9-2 2-2s2 .9 2 2v7.5c0 .83.67 1.5 1.5 1.5H31c1.1 0 2 .9 2 2s-.9 2-2 2z"/></symbol><symbol id="judge" viewBox="0 0 36 35.76"><clipPath id="b"><use xlink:href="#a" overflow="visible"/></clipPath><path clip-path="url(#b)" d="M18.1 16.42l-.75.66 12.96 14.71c.18.2.44.33.71.34s.54-.09.73-.28l3.94-3.75c.2-.19.31-.46.31-.73s-.12-.54-.32-.73L21.21 13.38c-.39-.35-.98-.35-1.36.01l-2.43 2.3a1 1 0 0 0-.06 1.39l.74-.66.69.73 1.75-1.66L33.53 27.4l-2.41 2.29-12.27-13.93-.75.66.69.73-.69-.73z"/><path d="M22.77 11.69l-.71-.71-6.75 6.75-4.25-4.29 6.05-6.05 4.95 5 .71-.7-.71-.71.71.71.71-.7-5.66-5.72a1 1 0 0 0-1.42-.01l-7.46 7.46a.996.996 0 0 0 0 1.41l5.66 5.72a1 1 0 0 0 1.42.01l7.46-7.46a.996.996 0 0 0 0-1.41l-.71.7z"/><g><clipPath id="d"><use xlink:href="#c" overflow="visible"/></clipPath><path clip-path="url(#d)" d="M27.72 10.62l-.7-.71-2.32 2.3v.01l.01-.01v.01l.01-.01-7.85-7.91L19.19 2l7.82 7.91.71.71.7.71c.39-.39.59-.91.59-1.42a2 2 0 0 0-.58-1.41L20.61.59C20.22.2 19.7 0 19.19 0a2 2 0 0 0-1.41.58l-2.32 2.3c-.39.39-.59.91-.59 1.42a2 2 0 0 0 .58 1.41l7.82 7.91c.39.4.91.59 1.42.59a2 2 0 0 0 1.41-.58l2.32-2.3-.7-.71zM16.53 21.81l-.7-.71-2.32 2.3v.01l.01-.01v.01l.01-.01-7.82-7.91L8 13.19l7.82 7.91.71.71.7.71c.39-.39.59-.91.59-1.42a2 2 0 0 0-.58-1.41l-7.82-7.91c-.39-.39-.91-.59-1.42-.59a2 2 0 0 0-1.41.58l-2.32 2.3c-.39.39-.59.91-.59 1.42a2 2 0 0 0 .58 1.41l7.82 7.91c.39.4.91.59 1.42.59a2 2 0 0 0 1.41-.58l2.32-2.3-.7-.71zM17.75 34.76v-1H2v-3.75h15.75v5.75c1.11 0 2-.89 2-2v-3.75c0-1.11-.89-2-2-2H2c-1.11 0-2 .89-2 2v3.75c0 1.11.89 2 2 2h15.75v-1z"/></g></symbol><symbol id="libra" viewBox="0 0 35.94 27.28"><clipPath id="b"><use xlink:href="#a" overflow="visible"/></clipPath><path clip-path="url(#b)" d="M26.38 26.28h1V25c0-2.21-1.79-4-4-4H12.56c-2.21 0-4 1.79-4 4v1.28c0 .26.11.52.29.71.19.19.44.29.71.29h16.81c.26 0 .52-.11.71-.29s.29-.44.29-.71h-.99v-1H10.56V25c0-.55.22-1.04.59-1.41.37-.37.86-.59 1.41-.59h10.81c.55 0 1.04.22 1.41.59.37.37.59.86.59 1.41v1.28h1.01v-1 1z"/><path clip-path="url(#b)" d="M18.97 22V1c0-.4-.23-.75-.59-.91-.36-.16-.78-.09-1.08.17l.15.17-.15-.17.15.17-.15-.17c-.03.02-.61.54-1.62 1.03-1.01.5-2.44.98-4.18.98-1.22 0-2.59-.23-4.11-.88-.51-.22-1.1.02-1.31.53s.02 1.1.53 1.31c1.76.75 3.42 1.03 4.89 1.03 2.18 0 3.95-.62 5.18-1.24 1.23-.62 1.92-1.24 1.97-1.29L17.97 1h-1v21c0 .55.45 1 1 1s1-.45 1-1z"/><path clip-path="url(#b)" d="M1.17 13.3l.89.46 4.81-9.17 4.04 7.71H1.17v1l.89.46-.89-.46v1h11.38c.35 0 .67-.18.86-.48.18-.3.19-.67.03-.98L7.75 1.98a.997.997 0 0 0-1.77 0L.29 12.84c-.16.31-.15.68.03.98.18.3.5.48.86.48v-1z"/><path clip-path="url(#b)" d="M6.86 19.16v1c3.79 0 6.86-3.07 6.86-6.86 0-.26-.11-.52-.29-.71a.99.99 0 0 0-.71-.29H1c-.26 0-.52.11-.71.29-.18.19-.29.45-.29.71a6.86 6.86 0 0 0 6.87 6.86v-2c-1.35 0-2.56-.54-3.44-1.42A4.802 4.802 0 0 1 2 13.3H1v1h11.73v-1h-1c0 1.35-.54 2.56-1.42 3.44-.88.88-2.09 1.42-3.44 1.42v1zM17.3 1.74c.05.04.74.66 1.97 1.29 1.23.62 3 1.24 5.18 1.24 1.47 0 3.13-.29 4.89-1.03.51-.22.75-.8.53-1.31s-.8-.75-1.31-.53c-1.52.64-2.9.88-4.11.88-1.79 0-3.26-.51-4.28-1.03-.51-.26-.9-.51-1.16-.7-.13-.09-.23-.17-.29-.22l-.07-.05-.01-.01-.15.17.15-.17-.15.17.15-.17a.997.997 0 0 0-1.41.07c-.37.4-.34 1.03.07 1.4z"/><path clip-path="url(#b)" d="M34.76 13.3l.89-.46-5.69-10.86c-.17-.33-.51-.54-.89-.54s-.71.21-.89.54L22.5 12.84c-.16.31-.15.68.03.98s.5.48.86.48h11.38c.35 0 .67-.18.86-.48s.19-.67.03-.98l-.9.46v-1h-9.73l4.04-7.71 4.81 9.17.88-.46v-1 1z"/><path clip-path="url(#b)" d="M29.07 19.16v-1c-1.35 0-2.56-.54-3.44-1.42a4.835 4.835 0 0 1-1.42-3.44h-1v1h11.73v-1h-1c0 1.35-.54 2.56-1.42 3.44-.88.88-2.09 1.42-3.44 1.42v2c3.79 0 6.86-3.07 6.87-6.86 0-.26-.11-.52-.29-.71a.99.99 0 0 0-.71-.29H23.21c-.26 0-.52.11-.71.29a.99.99 0 0 0-.29.71c0 3.79 3.07 6.86 6.86 6.86v-1z"/></symbol><symbol id="newspaper" viewBox="0 0 48 41"><path fill="#05817A" d="M44 0H13c-2.21 0-4 1.79-4 4v30c0 1.1-.9 2-2 2s-2-.9-2-2V7.5a2.5 2.5 0 0 0-5 0V37c0 2.21 1.79 4 4 4h40c2.21 0 4-1.79 4-4V4c0-2.21-1.79-4-4-4zM14 7.2c0-1.22.98-2.2 2.2-2.2h9.6c1.22 0 2.2.98 2.2 2.2v7.6c0 1.22-.98 2.2-2.2 2.2h-9.6c-1.22 0-2.2-.98-2.2-2.2V7.2zM41 33H16c-1.1 0-2-.9-2-2s.9-2 2-2h25c1.1 0 2 .9 2 2s-.9 2-2 2zm0-8H16c-1.1 0-2-.9-2-2s.9-2 2-2h25c1.1 0 2 .9 2 2s-.9 2-2 2zm0-8h-7c-1.1 0-2-.9-2-2s.9-2 2-2h7c1.1 0 2 .9 2 2s-.9 2-2 2zm0-8h-7c-1.1 0-2-.9-2-2s.9-2 2-2h7c1.1 0 2 .9 2 2s-.9 2-2 2z"/></symbol></svg>