<?xml version="1.0" encoding="utf-8"?>
<!-- Generator: Adobe Illustrator 16.0.0, SVG Export Plug-In . SVG Version: 6.00 Build 0)  -->
<!DOCTYPE svg PUBLIC "-//W3C//DTD SVG 1.1//EN" "http://www.w3.org/Graphics/SVG/1.1/DTD/svg11.dtd">
<svg version="1.1" id="Layer_2" xmlns="http://www.w3.org/2000/svg" xmlns:xlink="http://www.w3.org/1999/xlink" x="0px" y="0px"
	 width="35.83px" height="27px" viewBox="0 0 35.83 27" enable-background="new 0 0 35.83 27" xml:space="preserve">
<g>
	<g>
		<defs>
			<rect id="SVGID_1_" width="35.83" height="27"/>
		</defs>
		<clipPath id="SVGID_2_">
			<use xlink:href="#SVGID_1_"  overflow="visible"/>
		</clipPath>
		<path clip-path="url(#SVGID_2_)" d="M23.08,22.25v1h10.75c1.11,0,2-0.89,2-2V2c0-1.11-0.89-2-2-2H23.08c-0.15,0-0.57,0-1.08,0.11
			c-0.77,0.17-1.82,0.6-2.78,1.6c-0.96,1-1.8,2.53-2.29,4.82l-0.02,0.21V26c0,0.45,0.31,0.85,0.74,0.97
			c0.44,0.12,0.9-0.08,1.12-0.47c0.96-1.68,1.96-2.46,2.74-2.85c0.79-0.39,1.36-0.39,1.56-0.4V22.25v-1c-0.35,0-1.31,0.03-2.45,0.6
			c-1.15,0.57-2.46,1.67-3.58,3.65L17.92,26h1V6.75h-1l0.98,0.21c0.59-2.7,1.61-3.86,2.43-4.41c0.42-0.28,0.8-0.41,1.11-0.48
			C22.75,2,22.96,2,23.08,2h10.75l0,0v19.25H23.08V22.25z"/>
		<path clip-path="url(#SVGID_2_)" d="M12.75,22.25v-1H2l0,0V2l0,0h10.75c0.12,0,0.34,0,0.65,0.07c0.47,0.1,1.1,0.35,1.75,1.03
			c0.65,0.68,1.34,1.85,1.79,3.87l0.98-0.21h-1V26h1l0.87-0.49c-1.12-1.98-2.44-3.08-3.58-3.65c-1.14-0.57-2.11-0.61-2.45-0.6V22.25
			v1c0.2,0,0.78,0.01,1.56,0.4c0.78,0.39,1.77,1.16,2.74,2.85c0.22,0.39,0.69,0.59,1.12,0.47c0.44-0.12,0.74-0.51,0.74-0.97V6.75
			l-0.02-0.21c-0.66-3.05-1.95-4.77-3.26-5.65c-0.65-0.44-1.29-0.67-1.8-0.78C13.32,0,12.9,0,12.75,0H2C0.89,0,0,0.89,0,2v19.25
			c0,1.11,0.89,2,2,2h10.75V22.25z"/>
		<line clip-path="url(#SVGID_2_)" fill="#FFFFFF" x1="4.5" y1="5.67" x2="10" y2="5.67"/>
		<path clip-path="url(#SVGID_2_)" d="M4.5,6.67H10c0.55,0,1-0.45,1-1s-0.45-1-1-1H4.5c-0.55,0-1,0.45-1,1S3.95,6.67,4.5,6.67"/>
		<line clip-path="url(#SVGID_2_)" fill="#FFFFFF" x1="4.5" y1="9.67" x2="14.08" y2="9.67"/>
		<path clip-path="url(#SVGID_2_)" d="M4.5,10.67h9.58c0.55,0,1-0.45,1-1s-0.45-1-1-1H4.5c-0.55,0-1,0.45-1,1S3.95,10.67,4.5,10.67"
			/>
		<line clip-path="url(#SVGID_2_)" fill="#FFFFFF" x1="4.5" y1="13.67" x2="14.08" y2="13.67"/>
		<path clip-path="url(#SVGID_2_)" d="M4.5,14.67h9.58c0.55,0,1-0.45,1-1s-0.45-1-1-1H4.5c-0.55,0-1,0.45-1,1S3.95,14.67,4.5,14.67"
			/>
		<line clip-path="url(#SVGID_2_)" fill="#FFFFFF" x1="4.5" y1="17.67" x2="14.08" y2="17.67"/>
		<path clip-path="url(#SVGID_2_)" d="M4.5,18.67h9.58c0.55,0,1-0.45,1-1s-0.45-1-1-1H4.5c-0.55,0-1,0.45-1,1S3.95,18.67,4.5,18.67"
			/>
		<line clip-path="url(#SVGID_2_)" fill="#FFFFFF" x1="21.58" y1="5.67" x2="31.17" y2="5.67"/>
		<path clip-path="url(#SVGID_2_)" d="M21.58,6.67h9.58c0.55,0,1-0.45,1-1s-0.45-1-1-1h-9.58c-0.55,0-1,0.45-1,1
			S21.03,6.67,21.58,6.67"/>
		<line clip-path="url(#SVGID_2_)" fill="#FFFFFF" x1="21.58" y1="9.67" x2="31.17" y2="9.67"/>
		<path clip-path="url(#SVGID_2_)" d="M21.58,10.67h9.58c0.55,0,1-0.45,1-1s-0.45-1-1-1h-9.58c-0.55,0-1,0.45-1,1
			S21.03,10.67,21.58,10.67"/>
		<line clip-path="url(#SVGID_2_)" fill="#FFFFFF" x1="21.58" y1="13.67" x2="31.17" y2="13.67"/>
		<path clip-path="url(#SVGID_2_)" d="M21.58,14.67h9.58c0.55,0,1-0.45,1-1s-0.45-1-1-1h-9.58c-0.55,0-1,0.45-1,1
			S21.03,14.67,21.58,14.67"/>
		<line clip-path="url(#SVGID_2_)" fill="#FFFFFF" x1="21.58" y1="17.67" x2="31.17" y2="17.67"/>
		<path clip-path="url(#SVGID_2_)" d="M21.58,18.67h9.58c0.55,0,1-0.45,1-1s-0.45-1-1-1h-9.58c-0.55,0-1,0.45-1,1
			S21.03,18.67,21.58,18.67"/>
	</g>
</g>
</svg>
