<?xml version="1.0" encoding="utf-8"?>
<!-- Generator: Adobe Illustrator 16.0.0, SVG Export Plug-In . SVG Version: 6.00 Build 0)  -->
<!DOCTYPE svg PUBLIC "-//W3C//DTD SVG 1.1//EN" "http://www.w3.org/Graphics/SVG/1.1/DTD/svg11.dtd">
<svg version="1.1" id="new_1_" xmlns="http://www.w3.org/2000/svg" xmlns:xlink="http://www.w3.org/1999/xlink" x="0px" y="0px"
	 width="40px" height="48px" viewBox="0 0 40 48" enable-background="new 0 0 40 48" xml:space="preserve">
<g id="Group_1_copy_1_">
	<g id="BOOK">
		<g>
			<path fill="#05817A" d="M7,39h29c2.21,0,4-1.79,4-4V4c0-2.21-1.79-4-4-4H22v17.99c0,0.26-0.1,0.52-0.29,0.72
				c-0.39,0.39-1.03,0.39-1.42,0C20.03,18.44,16,15.09,16,15.09s-4.03,3.35-4.29,3.62c-0.39,0.39-1.03,0.39-1.42,0
				C10.1,18.51,10,18.25,10,17.99V0H4C1.79,0,0,1.79,0,4v40c0,2.21,1.79,4,4,4h33.5c1.38,0,2.5-1.12,2.5-2.5S38.88,43,37.5,43H7
				c-1.1,0-2-0.9-2-2S5.9,39,7,39z"/>
		</g>
	</g>
</g>
</svg>
