<?xml version="1.0" encoding="utf-8"?>
<!-- Generator: Adobe Illustrator 16.0.0, SVG Export Plug-In . SVG Version: 6.00 Build 0)  -->
<!DOCTYPE svg PUBLIC "-//W3C//DTD SVG 1.1//EN" "http://www.w3.org/Graphics/SVG/1.1/DTD/svg11.dtd">
<svg version="1.1" id="Layer_2" xmlns="http://www.w3.org/2000/svg" xmlns:xlink="http://www.w3.org/1999/xlink" x="0px" y="0px"
	 width="33.13px" height="37.79px" viewBox="0 0 33.13 37.79" enable-background="new 0 0 33.13 37.79" xml:space="preserve">
<g>
	<g>
		<defs>
			<rect id="SVGID_1_" y="0" width="33.13" height="37.79"/>
		</defs>
		<clipPath id="SVGID_2_">
			<use xlink:href="#SVGID_1_"  overflow="visible"/>
		</clipPath>
		<path clip-path="url(#SVGID_2_)" d="M1.77,10.44l0.54,0.84l14.23-9.09l11.34,7.25H1.77V10.44l0.54,0.84L1.77,10.44v1h29.53
			c0.44,0,0.83-0.29,0.96-0.72c0.12-0.43-0.05-0.88-0.42-1.12L17.08,0.16c-0.33-0.21-0.75-0.21-1.08,0L1.24,9.59
			c-0.37,0.24-0.55,0.7-0.42,1.12c0.12,0.43,0.52,0.72,0.96,0.72V10.44z"/>
		<path clip-path="url(#SVGID_2_)" d="M30.87,33.1v-1h-0.95v1h1v-0.99c0-1.25-1.01-2.26-2.27-2.27H4.17c-1.25,0-2.26,1.01-2.27,2.27
			v0.99h1v-1H2.27C1.01,32.11,0,33.12,0,34.37v1.15c0,1.25,1.01,2.26,2.27,2.27h28.6c1.25,0,2.26-1.01,2.27-2.27v-1.15
			c0-1.25-1.01-2.26-2.27-2.27V33.1v1l0.19,0.08l0.08,0.19v1.15l-0.08,0.19l-0.19,0.08H2.27l-0.19-0.08L2,35.52v-1.15l0.08-0.19
			l0.19-0.08H2.9c0.26,0,0.52-0.11,0.71-0.29c0.19-0.19,0.29-0.44,0.29-0.71v-0.99l0.08-0.19l0.19-0.08h24.48l0.19,0.08l0.08,0.19
			v0.99c0,0.26,0.11,0.52,0.29,0.71s0.44,0.29,0.71,0.29h0.95V33.1z"/>
		<path clip-path="url(#SVGID_2_)" d="M7.58,13.22v-1H4.94H2.58c-1,0-1.8,0.81-1.81,1.81v1.82c0,1,0.81,1.8,1.81,1.81h0.55v9.74
			c0,1,0.81,1.8,1.81,1.81h2.64c1,0,1.81-0.81,1.81-1.81V15.84v-1.82c0-1-0.81-1.8-1.81-1.81V13.22v1v-0.19H7.39
			c0,0.11,0.08,0.19,0.19,0.19v-0.19H7.39v1.82v11.54h0.19v-0.19c-0.11,0-0.19,0.08-0.19,0.19h0.19v-0.19H4.94v0.19h0.19
			c0-0.11-0.08-0.19-0.19-0.19v0.19h0.19V16.65c0-0.26-0.11-0.52-0.29-0.71c-0.19-0.19-0.44-0.29-0.71-0.29H2.58v0.19h0.19
			c0-0.11-0.08-0.19-0.19-0.19v0.19h0.19v-1.82H2.58v0.19c0.11,0,0.19-0.08,0.19-0.19H2.58v0.19h2.36h2.64V13.22z"/>
		<path clip-path="url(#SVGID_2_)" d="M11.88,13.22v1h2.26v12.98h-2.26V14.22V13.22v-1c-1.11,0-2,0.89-2,2v12.98c0,1.11,0.89,2,2,2
			h2.26c1.11,0,2-0.89,2-2V14.22c0-1.11-0.89-2-2-2h-2.26V13.22z"/>
		<path clip-path="url(#SVGID_2_)" d="M18.64,13.22v1h2.26v12.98h-2.26V14.22V13.22v-1c-1.11,0-2,0.89-2,2v12.98c0,1.11,0.89,2,2,2
			h2.26c1.11,0,2-0.89,2-2V14.22c0-1.11-0.89-2-2-2h-2.26V13.22z"/>
		<path clip-path="url(#SVGID_2_)" d="M30.2,13.22v-1h-2.36H25.2c-1,0-1.8,0.8-1.81,1.81v1.82v11.54c0,1,0.81,1.8,1.81,1.81h2.64
			c1,0,1.8-0.81,1.81-1.81v-9.74h0.55c1,0,1.8-0.81,1.81-1.81v-1.82c0-1-0.81-1.8-1.81-1.81V13.22v1v-0.19h-0.19
			c0,0.11,0.08,0.19,0.19,0.19v-0.19h-0.19v1.82h0.19v-0.19c-0.11,0-0.19,0.08-0.19,0.19h0.19v-0.19h-1.55
			c-0.26,0-0.52,0.11-0.71,0.29c-0.19,0.19-0.29,0.44-0.29,0.71v10.74h0.19v-0.19c-0.11,0-0.19,0.08-0.19,0.19h0.19v-0.19H25.2v0.19
			h0.19c0-0.11-0.08-0.19-0.19-0.19v0.19h0.19V15.84v-1.82H25.2v0.19c0.11,0,0.19-0.08,0.19-0.19H25.2v0.19h2.64h2.36V13.22z"/>
	</g>
</g>
</svg>
