<?xml version="1.0" encoding="utf-8"?>
<!-- Generator: Adobe Illustrator 16.0.0, SVG Export Plug-In . SVG Version: 6.00 Build 0)  -->
<!DOCTYPE svg PUBLIC "-//W3C//DTD SVG 1.1//EN" "http://www.w3.org/Graphics/SVG/1.1/DTD/svg11.dtd">
<svg version="1.1" id="new_1_" xmlns="http://www.w3.org/2000/svg" xmlns:xlink="http://www.w3.org/1999/xlink" x="0px" y="0px"
	 width="38px" height="48px" viewBox="0 0 38 48" enable-background="new 0 0 38 48" xml:space="preserve">
<g id="Group_1_1_">
	<g id="DOCUMENT">
		<g>
			<path fill="#05817A" d="M36.62,10.53l-9.08-9.06C26.64,0.56,25.38,0,24,0H4C1.79,0,0,1.79,0,4v40c0,2.21,1.79,4,4,4h30
				c2.21,0,4-1.79,4-4V13.92C38,12.58,37.47,11.39,36.62,10.53z M31,20h-9c-2.21,0-4-1.79-4-4V7c0-1.1,0.9-2,2-2s2,0.9,2,2v7.5
				c0,0.83,0.67,1.5,1.5,1.5H31c1.1,0,2,0.9,2,2C33,19.1,32.1,20,31,20z"/>
		</g>
	</g>
</g>
</svg>
