<?xml version="1.0" encoding="utf-8"?>
<!-- Generator: Adobe Illustrator 16.0.0, SVG Export Plug-In . SVG Version: 6.00 Build 0)  -->
<!DOCTYPE svg PUBLIC "-//W3C//DTD SVG 1.1//EN" "http://www.w3.org/Graphics/SVG/1.1/DTD/svg11.dtd">
<svg version="1.1" id="Layer_2" xmlns="http://www.w3.org/2000/svg" xmlns:xlink="http://www.w3.org/1999/xlink" x="0px" y="0px"
	 width="36px" height="35.76px" viewBox="0 0 36 35.76" enable-background="new 0 0 36 35.76" xml:space="preserve">
<g>
	<g>
		<defs>
			<rect id="SVGID_1_" width="36" height="35.76"/>
		</defs>
		<clipPath id="SVGID_2_">
			<use xlink:href="#SVGID_1_"  overflow="visible"/>
		</clipPath>
		<path clip-path="url(#SVGID_2_)" d="M18.1,16.42l-0.75,0.66l12.96,14.71c0.18,0.2,0.44,0.33,0.71,0.34s0.54-0.09,0.73-0.28
			l3.94-3.75c0.2-0.19,0.31-0.46,0.31-0.73s-0.12-0.54-0.32-0.73L21.21,13.38c-0.39-0.35-0.98-0.35-1.36,0.01l-2.43,2.3
			c-0.39,0.37-0.42,0.98-0.06,1.39L18.1,16.42l0.69,0.73l1.75-1.66L33.53,27.4l-2.41,2.29L18.85,15.76L18.1,16.42l0.69,0.73
			L18.1,16.42z"/>
	</g>
	<path d="M22.77,11.69l-0.71-0.71l-6.75,6.75l-4.25-4.29l6.05-6.05l4.95,5L22.77,11.69l-0.71-0.71L22.77,11.69l0.71-0.7l-5.66-5.72
		c-0.19-0.19-0.44-0.3-0.71-0.3c-0.27,0-0.52,0.1-0.71,0.29l-7.46,7.46c-0.39,0.39-0.39,1.02,0,1.41l5.66,5.72
		c0.19,0.19,0.44,0.3,0.71,0.3c0.27,0,0.52-0.1,0.71-0.29l7.46-7.46c0.39-0.39,0.39-1.02,0-1.41L22.77,11.69z"/>
	<g>
		<defs>
			<rect id="SVGID_3_" width="36" height="35.76"/>
		</defs>
		<clipPath id="SVGID_4_">
			<use xlink:href="#SVGID_3_"  overflow="visible"/>
		</clipPath>
		<path clip-path="url(#SVGID_4_)" d="M27.72,10.62l-0.7-0.71l-2.32,2.3l0,0v0h0l0,0.01l0.01-0.01l0,0l0,0.01l0.01-0.01l0,0
			L16.87,4.3l0,0l0,0h0l0,0h0h0l0,0l0,0L19.19,2l0,0v0v0l0,0v0v0l0,0v0v0l0,0l0,0l7.82,7.91v0h0l0,0v0h0v0l0,0L27.72,10.62l0.7,0.71
			c0.39-0.39,0.59-0.91,0.59-1.42c0-0.5-0.19-1.02-0.58-1.41l-7.82-7.91l0,0C20.22,0.2,19.7,0,19.19,0c-0.5,0-1.02,0.19-1.41,0.58
			l-2.32,2.3l0,0c-0.39,0.39-0.59,0.91-0.59,1.42c0,0.5,0.19,1.02,0.58,1.41l0,0l7.82,7.91l0,0c0.39,0.4,0.91,0.59,1.42,0.59
			c0.5,0,1.02-0.19,1.41-0.58l0,0l2.32-2.3l0,0L27.72,10.62z"/>
		<path clip-path="url(#SVGID_4_)" d="M16.53,21.81l-0.7-0.71l-2.32,2.3l0,0l0,0h0l0,0.01l0.01-0.01l0,0l0,0.01l0.01-0.01l0,0
			l-7.82-7.91l0,0l0,0h0l0,0h0h0l0,0l0,0L8,13.19l0,0l0,0v0l0,0l0,0v0v0l0,0l7.82,7.91h0h0h0h0L16.53,21.81l0.7,0.71
			c0.39-0.39,0.59-0.91,0.59-1.42c0-0.5-0.19-1.02-0.58-1.41h0l-7.82-7.91l0,0C9.03,11.39,8.51,11.19,8,11.19
			c-0.5,0-1.02,0.19-1.41,0.58l0,0l-2.32,2.3l0,0c-0.39,0.39-0.59,0.91-0.59,1.42c0,0.5,0.19,1.02,0.58,1.41l0,0l7.82,7.91l0,0
			c0.39,0.4,0.91,0.59,1.42,0.59c0.5,0,1.02-0.19,1.41-0.58l0,0l2.32-2.3h0L16.53,21.81z"/>
		<path clip-path="url(#SVGID_4_)" d="M17.75,34.76v-1H2l0,0v-3.75l0,0h15.75l0,0v3.75V34.76v1c1.11,0,2-0.89,2-2v-3.75
			c0-1.11-0.89-2-2-2H2c-1.11,0-2,0.89-2,2l0,0v3.75l0,0c0,1.11,0.89,2,2,2l0,0h15.75l0,0V34.76z"/>
	</g>
</g>
</svg>
