<?xml version="1.0" encoding="utf-8"?>
<!-- Generator: Adobe Illustrator 16.0.0, SVG Export Plug-In . SVG Version: 6.00 Build 0)  -->
<!DOCTYPE svg PUBLIC "-//W3C//DTD SVG 1.1//EN" "http://www.w3.org/Graphics/SVG/1.1/DTD/svg11.dtd">
<svg version="1.1" id="Layer_2" xmlns="http://www.w3.org/2000/svg" xmlns:xlink="http://www.w3.org/1999/xlink" x="0px" y="0px"
	 width="35.94px" height="27.28px" viewBox="0 0 35.94 27.28" enable-background="new 0 0 35.94 27.28" xml:space="preserve">
<g>
	<g>
		<defs>
			<rect id="SVGID_1_" y="0" width="35.94" height="27.28"/>
		</defs>
		<clipPath id="SVGID_2_">
			<use xlink:href="#SVGID_1_"  overflow="visible"/>
		</clipPath>
		<path clip-path="url(#SVGID_2_)" d="M26.38,26.28h1V25c0-2.21-1.79-4-4-4H12.56c-2.21,0-4,1.79-4,4v1.28
			c0,0.26,0.11,0.52,0.29,0.71c0.19,0.19,0.44,0.29,0.71,0.29h16.81c0.26,0,0.52-0.11,0.71-0.29s0.29-0.44,0.29-0.71H26.38v-1H10.56
			V25c0-0.55,0.22-1.04,0.59-1.41c0.37-0.37,0.86-0.59,1.41-0.59h10.81c0.55,0,1.04,0.22,1.41,0.59c0.37,0.37,0.59,0.86,0.59,1.41
			v1.28H26.38v-1V26.28z"/>
		<path clip-path="url(#SVGID_2_)" d="M18.97,22V1c0-0.4-0.23-0.75-0.59-0.91c-0.36-0.16-0.78-0.09-1.08,0.17l0.15,0.17L17.3,0.26
			l0,0l0.15,0.17L17.3,0.26c-0.03,0.02-0.61,0.54-1.62,1.03c-1.01,0.5-2.44,0.98-4.18,0.98c-1.22,0-2.59-0.23-4.11-0.88
			c-0.51-0.22-1.1,0.02-1.31,0.53s0.02,1.1,0.53,1.31c1.76,0.75,3.42,1.03,4.89,1.03c2.18,0,3.95-0.62,5.18-1.24
			c1.23-0.62,1.92-1.24,1.97-1.29L17.97,1h-1v21c0,0.55,0.45,1,1,1S18.97,22.55,18.97,22z"/>
		<path clip-path="url(#SVGID_2_)" d="M1.17,13.3l0.89,0.46l4.81-9.17l4.04,7.71H1.17V13.3l0.89,0.46L1.17,13.3v1h11.38
			c0.35,0,0.67-0.18,0.86-0.48c0.18-0.3,0.19-0.67,0.03-0.98L7.75,1.98C7.58,1.65,7.24,1.44,6.86,1.44S6.15,1.65,5.98,1.98
			L0.29,12.84c-0.16,0.31-0.15,0.68,0.03,0.98c0.18,0.3,0.5,0.48,0.86,0.48V13.3z"/>
		<path clip-path="url(#SVGID_2_)" d="M6.86,19.16v1c3.79,0,6.86-3.07,6.86-6.86c0-0.26-0.11-0.52-0.29-0.71
			c-0.19-0.19-0.44-0.29-0.71-0.29H1c-0.26,0-0.52,0.11-0.71,0.29C0.11,12.78,0,13.04,0,13.3c0,3.79,3.07,6.86,6.87,6.86V19.16v-1
			c-1.35,0-2.56-0.54-3.44-1.42C2.54,15.86,2,14.65,2,13.3H1v1h11.73v-1h-1c0,1.35-0.54,2.56-1.42,3.44
			c-0.88,0.88-2.09,1.42-3.44,1.42V19.16z"/>
		<path clip-path="url(#SVGID_2_)" d="M17.3,1.74c0.05,0.04,0.74,0.66,1.97,1.29c1.23,0.62,3,1.24,5.18,1.24
			c1.47,0,3.13-0.29,4.89-1.03c0.51-0.22,0.75-0.8,0.53-1.31s-0.8-0.75-1.31-0.53c-1.52,0.64-2.9,0.88-4.11,0.88
			c-1.79,0-3.26-0.51-4.28-1.03c-0.51-0.26-0.9-0.51-1.16-0.7c-0.13-0.09-0.23-0.17-0.29-0.22l-0.07-0.05l-0.01-0.01l-0.15,0.17
			l0.15-0.17l0,0l-0.15,0.17l0.15-0.17c-0.41-0.37-1.04-0.34-1.41,0.07C16.86,0.74,16.89,1.37,17.3,1.74z"/>
		<path clip-path="url(#SVGID_2_)" d="M34.76,13.3l0.89-0.46L29.96,1.98c-0.17-0.33-0.51-0.54-0.89-0.54s-0.71,0.21-0.89,0.54
			L22.5,12.84c-0.16,0.31-0.15,0.68,0.03,0.98s0.5,0.48,0.86,0.48h11.38c0.35,0,0.67-0.18,0.86-0.48s0.19-0.67,0.03-0.98L34.76,13.3
			v-1h-9.73l4.04-7.71l4.81,9.17L34.76,13.3v-1V13.3z"/>
		<path clip-path="url(#SVGID_2_)" d="M29.07,19.16v-1c-1.35,0-2.56-0.54-3.44-1.42c-0.88-0.88-1.42-2.09-1.42-3.44h-1v1h11.73v-1
			h-1c0,1.35-0.54,2.56-1.42,3.44c-0.88,0.88-2.09,1.42-3.44,1.42V19.16v1c3.79,0,6.86-3.07,6.87-6.86c0-0.26-0.11-0.52-0.29-0.71
			c-0.19-0.19-0.44-0.29-0.71-0.29H23.21c-0.26,0-0.52,0.11-0.71,0.29c-0.19,0.19-0.29,0.44-0.29,0.71c0,3.79,3.07,6.86,6.86,6.86
			V19.16z"/>
	</g>
</g>
</svg>
