<?xml version="1.0" encoding="utf-8"?>
<!-- Generator: Adobe Illustrator 16.0.0, SVG Export Plug-In . SVG Version: 6.00 Build 0)  -->
<!DOCTYPE svg PUBLIC "-//W3C//DTD SVG 1.1//EN" "http://www.w3.org/Graphics/SVG/1.1/DTD/svg11.dtd">
<svg version="1.1" id="new_1_" xmlns="http://www.w3.org/2000/svg" xmlns:xlink="http://www.w3.org/1999/xlink" x="0px" y="0px"
	 width="48px" height="41px" viewBox="0 0 48 41" enable-background="new 0 0 48 41" xml:space="preserve">
<g id="Group_1_copy_2_1_">
	<g id="NEWS">
		<g>
			<path fill="#05817A" d="M44,0H13c-2.21,0-4,1.79-4,4v30c0,1.1-0.9,2-2,2s-2-0.9-2-2V7.5C5,6.12,3.88,5,2.5,5S0,6.12,0,7.5V37
				c0,2.21,1.79,4,4,4h40c2.21,0,4-1.79,4-4V4C48,1.79,46.21,0,44,0z M14,7.2C14,5.98,14.98,5,16.2,5h9.6C27.02,5,28,5.98,28,7.2
				v7.6c0,1.22-0.98,2.2-2.2,2.2h-9.6c-1.22,0-2.2-0.98-2.2-2.2V7.2z M41,33H16c-1.1,0-2-0.9-2-2s0.9-2,2-2h25c1.1,0,2,0.9,2,2
				S42.1,33,41,33z M41,25H16c-1.1,0-2-0.9-2-2s0.9-2,2-2h25c1.1,0,2,0.9,2,2S42.1,25,41,25z M41,17h-7c-1.1,0-2-0.9-2-2s0.9-2,2-2
				h7c1.1,0,2,0.9,2,2S42.1,17,41,17z M41,9h-7c-1.1,0-2-0.9-2-2s0.9-2,2-2h7c1.1,0,2,0.9,2,2S42.1,9,41,9z"/>
		</g>
	</g>
</g>
</svg>
